<svg width="10" height="10" viewBox="0 0 10 10" fill="none" xmlns="http://www.w3.org/2000/svg">
<path fill-rule="evenodd" clip-rule="evenodd" d="M5.28033 0.21967C5.57322 0.512563 5.57322 0.987437 5.28033 1.28033L1.81066 4.75L5.28033 8.21967C5.57322 8.51256 5.57322 8.98744 5.28033 9.28033C4.98744 9.57322 4.51256 9.57322 4.21967 9.28033L0.21967 5.28033C-0.0732233 4.98744 -0.0732233 4.51256 0.21967 4.21967L4.21967 0.21967C4.51256 -0.0732233 4.98744 -0.0732233 5.28033 0.21967Z" fill="black"/>
<path fill-rule="evenodd" clip-rule="evenodd" d="M9.28033 0.21967C9.57322 0.512563 9.57322 0.987437 9.28033 1.28033L5.81066 4.75L9.28033 8.21967C9.57322 8.51256 9.57322 8.98744 9.28033 9.28033C8.98744 9.57322 8.51256 9.57322 8.21967 9.28033L4.21967 5.28033C3.92678 4.98744 3.92678 4.51256 4.21967 4.21967L8.21967 0.21967C8.51256 -0.0732233 8.98744 -0.0732233 9.28033 0.21967Z" fill="black"/>
</svg>
