<svg width="10" height="10" viewBox="0 0 10 10" fill="none" xmlns="http://www.w3.org/2000/svg">
<path fill-rule="evenodd" clip-rule="evenodd" d="M4.21967 9.28033C3.92678 8.98744 3.92678 8.51256 4.21967 8.21967L7.68934 4.75L4.21967 1.28033C3.92678 0.987436 3.92678 0.512563 4.21967 0.219669C4.51256 -0.0732241 4.98744 -0.0732241 5.28033 0.219669L9.28033 4.21967C9.57322 4.51256 9.57322 4.98744 9.28033 5.28033L5.28033 9.28033C4.98744 9.57322 4.51256 9.57322 4.21967 9.28033Z" fill="black"/>
<path fill-rule="evenodd" clip-rule="evenodd" d="M0.21967 9.28033C-0.0732236 8.98744 -0.0732236 8.51256 0.21967 8.21967L3.68934 4.75L0.21967 1.28033C-0.0732236 0.987436 -0.0732236 0.512563 0.21967 0.219669C0.512563 -0.0732241 0.987437 -0.0732241 1.28033 0.219669L5.28033 4.21967C5.57322 4.51256 5.57322 4.98744 5.28033 5.28033L1.28033 9.28033C0.987437 9.57322 0.512563 9.57322 0.21967 9.28033Z" fill="black"/>
</svg>
